<svg xmlns="http://www.w3.org/2000/svg" width="255" height="255" viewBox="0 0 255 255">
  <g fill="none" fill-rule="evenodd" stroke="#000" transform="translate(2 2)">
    <rect width="250" height="250" x=".5" y=".5" stroke-width="5"/>
    <circle cx="126" cy="126" r="75" fill="#F25159" stroke-width="3"/>
    <rect width="36" height="36" x=".082" y=".667" fill="#FFF" fill-rule="nonzero" transform="translate(87 128)"/>
    <rect width="29.189" height="29.189" x=".066" y=".541" fill="#FFF" fill-rule="nonzero" transform="translate(114 70)"/>
    <rect width="29.189" height="29.189" x=".066" y=".541" fill="#FFF" fill-rule="nonzero" transform="translate(153 104)"/>
    <rect width="29.189" height="29.189" x=".066" y=".541" fill="#FFF" fill-rule="nonzero" transform="translate(138 85)"/>
    <path d="M104.543371,147.332404 L157.626719,94.249056"/>
    <path d="M91.5852462,138.374156 L144.668594,85.2908079" transform="rotate(-24.564 118.127 111.832)"/>
    <path d="M112.960162,158.957299 L166.04351,105.873951" transform="rotate(22.264 139.502 132.416)"/>
    <path fill="#000" d="M27.0550625,29.3952812 L27.0550625,35.407 L23.5394375,35.407 L23.5394375,18.3445 L30.1956875,18.3445 C31.4769439,18.3445 32.6038858,18.5788727 33.5765469,19.047625 C34.549208,19.5163773 35.2972474,20.1823863 35.8206875,21.0456719 C36.3441276,21.9089574 36.6058437,22.8913695 36.6058437,23.9929375 C36.6058437,25.6648209 36.0335838,26.9831671 34.8890469,27.9480156 C33.7445099,28.9128642 32.1605414,29.3952812 30.1370937,29.3952812 L27.0550625,29.3952812 Z M27.0550625,26.547625 L30.1956875,26.547625 C31.1253796,26.547625 31.8343569,26.3288772 32.3226406,25.891375 C32.8109243,25.4538728 33.0550625,24.8288791 33.0550625,24.016375 C33.0550625,23.1804333 32.8089712,22.5046588 32.3167812,21.9890312 C31.8245913,21.4734037 31.1449106,21.2077813 30.2777187,21.1921562 L27.0550625,21.1921562 L27.0550625,26.547625 Z M42.3714687,35.407 L38.9730312,35.407 L38.9730312,17.407 L42.3714687,17.407 L42.3714687,35.407 Z M52.5081875,35.407 C52.3519367,35.102311 52.2386566,34.7234085 52.1683437,34.2702813 C51.3480271,35.1843483 50.2816316,35.641375 48.969125,35.641375 C47.7269313,35.641375 46.6976447,35.2820036 45.8812344,34.56325 C45.064824,33.8444964 44.656625,32.9382555 44.656625,31.8445 C44.656625,30.5007433 45.1546669,29.4695036 46.1507656,28.75075 C47.1468644,28.0319964 48.5863031,27.6687188 50.469125,27.6609063 L52.0277187,27.6609063 L52.0277187,26.9343437 C52.0277187,26.3484033 51.8773296,25.879658 51.5765469,25.5280938 C51.2757641,25.1765295 50.8011595,25.00075 50.1527187,25.00075 C49.5824034,25.00075 49.1351422,25.1374674 48.8109219,25.4109063 C48.4867015,25.6843451 48.3245937,26.0593414 48.3245937,26.5359063 L44.937875,26.5359063 C44.937875,25.8015276 45.1644352,25.1218469 45.6175625,24.4968438 C46.0706898,23.8718406 46.7113084,23.3816112 47.5394375,23.0261406 C48.3675666,22.6706701 49.2972448,22.4929375 50.3285,22.4929375 C51.8910078,22.4929375 53.1312298,22.8855117 54.0492031,23.6706719 C54.9671765,24.4558321 55.4261562,25.5593366 55.4261562,26.9812188 L55.4261562,32.4773125 C55.4339688,33.6804435 55.6019359,34.5905907 55.9300625,35.2077813 L55.9300625,35.407 L52.5081875,35.407 Z M49.7074062,33.0515312 C50.2074087,33.0515312 50.6683416,32.9402042 51.0902187,32.7175469 C51.5120959,32.4948895 51.8245927,32.1960644 52.0277187,31.8210625 L52.0277187,29.641375 L50.7620937,29.641375 C49.0667728,29.641375 48.164438,30.2273066 48.0550625,31.3991875 L48.0433437,31.5984062 C48.0433437,32.0202834 48.1917798,32.3679361 48.4886562,32.641375 C48.7855327,32.9148139 49.1917787,33.0515312 49.7074062,33.0515312 Z M63.3011562,32.9109063 C63.9261594,32.9109063 64.4339668,32.739033 64.8245937,32.3952813 C65.2152207,32.0515295 65.4183437,31.5945029 65.4339687,31.0241875 L68.60975,31.0241875 C68.6019375,31.8835668 68.3675648,32.6706683 67.906625,33.3855156 C67.4456852,34.1003629 66.8148321,34.6550449 66.0140469,35.0495781 C65.2132616,35.4441113 64.3285048,35.641375 63.35975,35.641375 C61.5472409,35.641375 60.1175677,35.0652089 59.0706875,33.9128594 C58.0238073,32.7605099 57.500375,31.1687289 57.500375,29.1374688 L57.500375,28.9148125 C57.500375,26.9616777 58.0199011,25.4030996 59.0589687,24.2390313 C60.0980364,23.0749629 61.5238034,22.4929375 63.3363125,22.4929375 C64.9222579,22.4929375 66.1937296,22.9441049 67.1507656,23.8464531 C68.1078017,24.7488014 68.5941249,25.9499613 68.60975,27.4499688 L65.4339687,27.4499688 C65.4183437,26.7937155 65.2152207,26.2605177 64.8245937,25.8503594 C64.4339668,25.4402011 63.918347,25.235125 63.2777187,25.235125 C62.4886523,25.235125 61.8929551,25.5222315 61.4906094,26.0964531 C61.0882636,26.6706747 60.8870937,27.6023061 60.8870937,28.891375 L60.8870937,29.2429375 C60.8870937,30.5476315 61.0863105,31.4851221 61.48475,32.0554375 C61.8831895,32.6257529 62.4886522,32.9109063 63.3011562,32.9109063 Z M76.3792812,35.641375 C74.519897,35.641375 73.0062402,35.0710682 71.8382656,33.9304375 C70.670291,32.7898068 70.0863125,31.2702907 70.0863125,29.3718438 L70.0863125,29.0437187 C70.0863125,27.7702749 70.3324038,26.6316144 70.8245937,25.6277031 C71.3167837,24.6237919 72.0140424,23.8503621 72.9163906,23.3073906 C73.8187389,22.7644192 74.8480255,22.4929375 76.0042812,22.4929375 C77.7386649,22.4929375 79.1038856,23.039807 80.0999844,24.1335625 C81.0960831,25.227318 81.594125,26.7780837 81.594125,28.7859063 L81.594125,30.1687187 L73.5199062,30.1687187 C73.6292818,30.9968479 73.9593566,31.6609037 74.5101406,32.1609063 C75.0609246,32.6609088 75.7581833,32.9109063 76.6019375,32.9109063 C77.9066315,32.9109063 78.9261526,32.4382547 79.6605312,31.4929375 L81.3245937,33.3562188 C80.8167787,34.0749723 80.1292856,34.6355136 79.2620937,35.0378594 C78.3949019,35.4402051 77.433974,35.641375 76.3792812,35.641375 Z M75.9925625,25.235125 C75.3206841,25.235125 74.7757677,25.4616852 74.3577969,25.9148125 C73.939826,26.3679398 73.6722506,27.0163708 73.5550625,27.860125 L78.266,27.860125 L78.266,27.5905937 C78.2503749,26.84059 78.047252,26.2605177 77.656625,25.8503594 C77.265998,25.4402011 76.7113161,25.235125 75.9925625,25.235125 Z M86.8206875,24.110125 C87.7191295,23.0319946 88.8480245,22.4929375 90.2074062,22.4929375 C92.95742,22.4929375 94.3519373,24.0905778 94.391,27.2859062 L94.391,35.407 L91.0042812,35.407 L91.0042812,27.3796562 C91.0042812,26.6530901 90.8480328,26.1159861 90.5355312,25.7683281 C90.2230297,25.4206701 89.7035036,25.2468437 88.9769375,25.2468437 C87.984745,25.2468437 87.2660022,25.6296524 86.8206875,26.3952812 L86.8206875,35.407 L83.4339687,35.407 L83.4339687,17.407 L86.8206875,17.407 L86.8206875,24.110125 Z M96.4183437,28.9499688 C96.4183437,27.69215 96.6605288,26.5710674 97.1449062,25.5866875 C97.6292837,24.6023076 98.3265423,23.8405964 99.2367031,23.3015312 C100.146864,22.7624661 101.203494,22.4929375 102.406625,22.4929375 C104.117571,22.4929375 105.514041,23.0163698 106.596078,24.06325 C107.678115,25.1101302 108.281624,26.531991 108.406625,28.328875 L108.430062,29.1960625 C108.430062,31.1413847 107.887099,32.701916 106.801156,33.8777031 C105.715213,35.0534903 104.258197,35.641375 102.430062,35.641375 C100.601928,35.641375 99.1429586,35.0554434 98.0531094,33.8835625 C96.9632602,32.7116816 96.4183437,31.1179476 96.4183437,29.1023125 L96.4183437,28.9499688 Z M99.8050625,29.1960625 C99.8050625,30.3991935 100.031623,31.3191062 100.48475,31.9558281 C100.937877,32.5925501 101.586308,32.9109062 102.430062,32.9109062 C103.250379,32.9109062 103.890998,32.5964563 104.351937,31.9675469 C104.812877,31.3386375 105.043344,30.3327882 105.043344,28.9499687 C105.043344,27.7702754 104.812877,26.856222 104.351937,26.2077812 C103.890998,25.5593405 103.242567,25.235125 102.406625,25.235125 C101.578496,25.235125 100.937877,25.5573874 100.48475,26.2019219 C100.031623,26.8464563 99.8050625,27.8444932 99.8050625,29.1960625 Z M114.090219,35.407 L110.691781,35.407 L110.691781,17.407 L114.090219,17.407 L114.090219,35.407 Z M116.351937,28.9734062 C116.351937,26.9968339 116.795292,25.4226309 117.682016,24.25075 C118.568739,23.0788691 119.781617,22.4929375 121.320687,22.4929375 C122.555069,22.4929375 123.57459,22.9538704 124.379281,23.87575 L124.379281,17.407 L127.777719,17.407 L127.777719,35.407 L124.719125,35.407 L124.555062,34.0593437 C123.711308,35.1140365 122.625382,35.641375 121.29725,35.641375 C119.805055,35.641375 118.607801,35.0534903 117.705453,33.8777031 C116.803105,32.701916 116.351937,31.0671667 116.351937,28.9734062 Z M119.738656,29.2195 C119.738656,30.4070059 119.945685,31.3171531 120.35975,31.9499687 C120.773815,32.5827844 121.375371,32.8991875 122.164437,32.8991875 C123.211318,32.8991875 123.949592,32.4577857 124.379281,31.5749687 L124.379281,26.5710625 C123.957404,25.6882456 123.226943,25.2468437 122.187875,25.2468437 C120.555054,25.2468437 119.738656,26.5710493 119.738656,29.2195 Z M136.238656,35.641375 C134.379272,35.641375 132.865615,35.0710682 131.697641,33.9304375 C130.529666,32.7898068 129.945687,31.2702907 129.945687,29.3718438 L129.945687,29.0437187 C129.945687,27.7702749 130.191779,26.6316144 130.683969,25.6277031 C131.176159,24.6237919 131.873417,23.8503621 132.775766,23.3073906 C133.678114,22.7644192 134.7074,22.4929375 135.863656,22.4929375 C137.59804,22.4929375 138.963261,23.039807 139.959359,24.1335625 C140.955458,25.227318 141.4535,26.7780837 141.4535,28.7859063 L141.4535,30.1687187 L133.379281,30.1687187 C133.488657,30.9968479 133.818732,31.6609037 134.369516,32.1609063 C134.9203,32.6609088 135.617558,32.9109063 136.461312,32.9109063 C137.766007,32.9109063 138.785528,32.4382547 139.519906,31.4929375 L141.183969,33.3562188 C140.676154,34.0749723 139.988661,34.6355136 139.121469,35.0378594 C138.254277,35.4402051 137.293349,35.641375 136.238656,35.641375 Z M135.851937,25.235125 C135.180059,25.235125 134.635143,25.4616852 134.217172,25.9148125 C133.799201,26.3679398 133.531626,27.0163708 133.414437,27.860125 L138.125375,27.860125 L138.125375,27.5905937 C138.10975,26.84059 137.906627,26.2605177 137.516,25.8503594 C137.125373,25.4402011 136.570691,25.235125 135.851937,25.235125 Z M150.500375,25.9030938 C150.039435,25.8405934 149.633189,25.8093438 149.281625,25.8093438 C148.000369,25.8093438 147.160533,26.2429332 146.762094,27.110125 L146.762094,35.407 L143.375375,35.407 L143.375375,22.7273125 L146.574594,22.7273125 L146.668344,24.2390313 C147.348035,23.0749629 148.289431,22.4929375 149.492562,22.4929375 C149.867564,22.4929375 150.219123,22.5437182 150.54725,22.6452812 L150.500375,25.9030938 Z M158.3285,35.407 L158.3285,18.3445 L164.305062,18.3445 C166.375385,18.3445 167.945682,18.7409804 169.016,19.5339531 C170.086318,20.3269258 170.621469,21.4890236 170.621469,23.0202812 C170.621469,23.8562229 170.406627,24.5925437 169.976937,25.2292656 C169.547248,25.8659876 168.949598,26.3327798 168.183969,26.6296562 C169.058973,26.8484073 169.748419,27.2898092 170.252328,27.953875 C170.756237,28.6179408 171.008187,29.4304327 171.008187,30.391375 C171.008187,32.0320082 170.484755,33.2741833 169.437875,34.1179375 C168.390995,34.9616917 166.898822,35.3913749 164.961312,35.407 L158.3285,35.407 Z M161.844125,27.9773125 L161.844125,32.5827812 L164.855844,32.5827812 C165.683973,32.5827812 166.330451,32.3855176 166.795297,31.9909844 C167.260143,31.5964512 167.492562,31.0515347 167.492562,30.3562187 C167.492562,28.7937109 166.683977,28.0007501 165.066781,27.9773125 L161.844125,27.9773125 Z M161.844125,25.4929375 L164.445687,25.4929375 C166.219134,25.4616873 167.105844,24.7546632 167.105844,23.3718437 C167.105844,22.5984024 166.881237,22.0417673 166.432016,21.7019219 C165.982795,21.3620764 165.273817,21.1921562 164.305062,21.1921562 L161.844125,21.1921562 L161.844125,25.4929375 Z M176.996469,35.407 L173.598031,35.407 L173.598031,17.407 L176.996469,17.407 L176.996469,35.407 Z M179.258187,28.9499688 C179.258187,27.69215 179.500373,26.5710674 179.98475,25.5866875 C180.469127,24.6023076 181.166386,23.8405964 182.076547,23.3015312 C182.986708,22.7624661 184.043338,22.4929375 185.246469,22.4929375 C186.957415,22.4929375 188.353885,23.0163698 189.435922,24.06325 C190.517959,25.1101302 191.121468,26.531991 191.246469,28.328875 L191.269906,29.1960625 C191.269906,31.1413847 190.726943,32.701916 189.641,33.8777031 C188.555057,35.0534903 187.09804,35.641375 185.269906,35.641375 C183.441772,35.641375 181.982802,35.0554434 180.892953,33.8835625 C179.803104,32.7116816 179.258187,31.1179476 179.258187,29.1023125 L179.258187,28.9499688 Z M182.644906,29.1960625 C182.644906,30.3991935 182.871466,31.3191062 183.324594,31.9558281 C183.777721,32.5925501 184.426152,32.9109062 185.269906,32.9109062 C186.090223,32.9109062 186.730841,32.5964563 187.191781,31.9675469 C187.652721,31.3386375 187.883187,30.3327882 187.883187,28.9499687 C187.883187,27.7702754 187.652721,26.856222 187.191781,26.2077812 C186.730841,25.5593405 186.08241,25.235125 185.246469,25.235125 C184.41834,25.235125 183.777721,25.5573874 183.324594,26.2019219 C182.871466,26.8464563 182.644906,27.8444932 182.644906,29.1960625 Z M198.629281,32.9109063 C199.254284,32.9109063 199.762092,32.739033 200.152719,32.3952813 C200.543346,32.0515295 200.746469,31.5945029 200.762094,31.0241875 L203.937875,31.0241875 C203.930062,31.8835668 203.69569,32.6706683 203.23475,33.3855156 C202.77381,34.1003629 202.142957,34.6550449 201.342172,35.0495781 C200.541387,35.4441113 199.65663,35.641375 198.687875,35.641375 C196.875366,35.641375 195.445693,35.0652089 194.398812,33.9128594 C193.351932,32.7605099 192.8285,31.1687289 192.8285,29.1374688 L192.8285,28.9148125 C192.8285,26.9616777 193.348026,25.4030996 194.387094,24.2390313 C195.426161,23.0749629 196.851928,22.4929375 198.664437,22.4929375 C200.250383,22.4929375 201.521855,22.9441049 202.478891,23.8464531 C203.435927,24.7488014 203.92225,25.9499613 203.937875,27.4499688 L200.762094,27.4499688 C200.746469,26.7937155 200.543346,26.2605177 200.152719,25.8503594 C199.762092,25.4402011 199.246472,25.235125 198.605844,25.235125 C197.816777,25.235125 197.22108,25.5222315 196.818734,26.0964531 C196.416389,26.6706747 196.215219,27.6023061 196.215219,28.891375 L196.215219,29.2429375 C196.215219,30.5476315 196.414436,31.4851221 196.812875,32.0554375 C197.211314,32.6257529 197.816777,32.9109063 198.629281,32.9109063 Z M210.476937,30.3210625 L209.258187,31.5398125 L209.258187,35.407 L205.871469,35.407 L205.871469,17.407 L209.258187,17.407 L209.258187,27.3796562 L209.914437,26.5359062 L213.160531,22.7273125 L217.226937,22.7273125 L212.644906,28.0124687 L217.625375,35.407 L213.73475,35.407 L210.476937,30.3210625 Z"/>
  </g>
</svg>
