<?xml version="1.0" encoding="utf-8"?>
<!DOCTYPE svg PUBLIC "-//W3C//DTD SVG 1.1//EN" "http://www.w3.org/Graphics/SVG/1.1/DTD/svg11.dtd">
<svg version="1.1" id="Capa_1" xmlns="http://www.w3.org/2000/svg" xmlns:xlink="http://www.w3.org/1999/xlink" x="0px" y="0px"
	 width="890px" height="220px" viewBox="0 0 890 220" enable-background="new 0 0 890 220" xml:space="preserve">
<style>
	.text {
		fill: #F25159;
		fill: #ffffff;
	}
</style>
<polygon class="text" points="104,197 19,197 19,21 195,21 195,107 175,107 175,41 39,41 39,177 104,177 "/>
<!-- <circle fill="#F25159" cx="60" cy="60" r="40"/> -->
<g>
	<g>
		<path class="text" d="M152.08,176.8c0-2.31-0.82-4.1-2.45-5.39c-1.63-1.29-4.5-2.62-8.61-4c-4.1-1.38-7.46-2.71-10.07-4
			c-8.48-4.16-12.72-9.89-12.72-17.17c0-3.62,1.06-6.82,3.17-9.59c2.11-2.77,5.1-4.93,8.96-6.47c3.86-1.54,8.21-2.31,13.03-2.31
			c4.7,0,8.92,0.84,12.65,2.52c3.73,1.68,6.63,4.07,8.7,7.17c2.07,3.1,3.1,6.64,3.1,10.63h-15.73c0-2.67-0.82-4.73-2.45-6.2
			c-1.63-1.47-3.84-2.2-6.63-2.2c-2.82,0-5.04,0.62-6.67,1.87c-1.63,1.24-2.45,2.82-2.45,4.74c0,1.68,0.9,3.2,2.7,4.56
			c1.8,1.36,4.96,2.77,9.48,4.22c4.52,1.45,8.24,3.02,11.14,4.7c7.07,4.07,10.6,9.69,10.6,16.85c0,5.72-2.16,10.22-6.47,13.48
			c-4.31,3.27-10.23,4.9-17.75,4.9c-5.3,0-10.1-0.95-14.4-2.85c-4.3-1.9-7.53-4.51-9.71-7.82c-2.17-3.31-3.26-7.12-3.26-11.44h15.82
			c0,3.5,0.91,6.09,2.72,7.75c1.81,1.66,4.76,2.49,8.83,2.49c2.61,0,4.67-0.56,6.18-1.69C151.33,180.41,152.08,178.83,152.08,176.8z
			"/>
		<path class="text" d="M173.34,169.38c0-7.73,1.68-13.78,5.03-18.15c3.35-4.37,7.98-6.56,13.88-6.56c4.97,0,8.96,2.04,11.95,6.11
			l1.08-5.21h13.12v67.31h-15.19v-22.74c-2.91,3.3-6.59,4.94-11.05,4.94c-5.75,0-10.33-2.22-13.73-6.67
			C175.04,183.96,173.34,177.62,173.34,169.38z M188.48,170.33c0,8.72,2.52,13.08,7.55,13.08c3.47,0,5.87-1.32,7.19-3.95v-19.23
			c-1.26-2.58-3.62-3.86-7.1-3.86c-4.7,0-7.23,3.76-7.59,11.28L188.48,170.33z"/>
		<path class="text" d="M255.93,188.93c-3.21,4.1-7.53,6.16-12.99,6.16c-5.33,0-9.37-1.55-12.11-4.65
			c-2.74-3.1-4.11-7.56-4.11-13.37v-31.5h15.14v31.59c0,4.16,2.02,6.25,6.07,6.25c3.47,0,5.95-1.24,7.42-3.73v-34.11h15.23v48.62
			h-14.2L255.93,188.93z"/>
		<path class="text" d="M306.26,194.19c-0.54-0.99-1.02-2.44-1.44-4.36c-2.79,3.5-6.68,5.26-11.68,5.26
			c-4.58,0-8.48-1.38-11.68-4.16c-3.21-2.77-4.81-6.25-4.81-10.45c0-5.27,1.95-9.26,5.84-11.95c3.89-2.7,9.56-4.04,16.99-4.04h4.67
			v-2.57c0-4.49-1.93-6.73-5.8-6.73c-3.59,0-5.39,1.78-5.39,5.33h-15.14c0-4.7,2-8.51,6-11.44c4-2.93,9.1-4.4,15.3-4.4
			s11.1,1.51,14.69,4.54c3.59,3.03,5.44,7.17,5.53,12.45v21.52c0.06,4.46,0.75,7.88,2.07,10.25v0.76H306.26z M296.77,184.3
			c1.89,0,3.45-0.4,4.7-1.21c1.24-0.81,2.13-1.72,2.67-2.74v-7.77h-4.4c-5.27,0-7.91,2.37-7.91,7.1c0,1.38,0.46,2.49,1.39,3.35
			C294.15,183.87,295.34,184.3,296.77,184.3z"/>
		<path class="text" d="M357.12,159.27l-4.99-0.36c-4.76,0-7.82,1.5-9.17,4.49v30.78h-15.14v-48.62h14.2l0.5,6.25
			c2.54-4.76,6.1-7.14,10.65-7.14c1.62,0,3.03,0.18,4.22,0.54L357.12,159.27z"/>
		<path class="text" d="M385.25,195.08c-7.46,0-13.5-2.22-18.11-6.67c-4.61-4.45-6.92-10.24-6.92-17.37v-1.26
			c0-4.97,0.92-9.36,2.76-13.17c1.84-3.8,4.53-6.75,8.07-8.83c3.53-2.08,7.73-3.12,12.58-3.12c6.83,0,12.22,2.12,16.18,6.36
			c3.95,4.24,5.93,10.15,5.93,17.73v5.89h-30.11c0.54,2.73,1.72,4.87,3.55,6.43c1.83,1.56,4.19,2.34,7.1,2.34
			c4.79,0,8.54-1.68,11.23-5.03l6.92,8.18c-1.89,2.61-4.56,4.68-8.02,6.22C392.96,194.31,389.23,195.08,385.25,195.08z
			 M383.54,156.35c-4.43,0-7.07,2.94-7.91,8.81h15.28v-1.17c0.06-2.43-0.55-4.31-1.84-5.64S385.94,156.35,383.54,156.35z"/>
		<path class="text" d="M490.13,194.19h-15.68v-27.32h-23.23v27.32h-15.77v-65.42h15.77v25.97h23.23v-25.97h15.68V194.19z"/>
		<path class="text" d="M526.79,194.19c-0.54-0.99-1.02-2.44-1.44-4.36c-2.79,3.5-6.68,5.26-11.68,5.26
			c-4.58,0-8.48-1.38-11.68-4.16c-3.21-2.77-4.81-6.25-4.81-10.45c0-5.27,1.95-9.26,5.84-11.95c3.89-2.7,9.56-4.04,16.99-4.04h4.67
			v-2.57c0-4.49-1.93-6.73-5.8-6.73c-3.59,0-5.39,1.78-5.39,5.33h-15.14c0-4.7,2-8.51,6-11.44c4-2.93,9.1-4.4,15.3-4.4
			s11.1,1.51,14.69,4.54c3.59,3.03,5.44,7.17,5.53,12.45v21.52c0.06,4.46,0.75,7.88,2.07,10.25v0.76H526.79z M517.31,184.3
			c1.89,0,3.45-0.4,4.7-1.21c1.24-0.81,2.13-1.72,2.67-2.74v-7.77h-4.4c-5.27,0-7.91,2.37-7.91,7.1c0,1.38,0.46,2.49,1.39,3.35
			C514.69,183.87,515.88,184.3,517.31,184.3z"/>
		<path class="text" d="M593.39,170.24c0,7.55-1.7,13.58-5.1,18.09c-3.4,4.51-7.99,6.76-13.77,6.76c-4.46,0-8.13-1.63-11.01-4.9
			v22.69h-15.14v-67.31h14.15l0.45,4.49c2.91-3.59,6.72-5.39,11.46-5.39c5.99,0,10.65,2.21,13.97,6.63s4.99,10.49,4.99,18.22V170.24
			z M578.25,169.29c0-8.63-2.52-12.94-7.55-12.94c-3.59,0-5.99,1.29-7.19,3.86v19.14c1.32,2.7,3.74,4.04,7.28,4.04
			c4.82,0,7.31-4.16,7.46-12.49V169.29z"/>
		<path class="text" d="M645.2,170.24c0,7.55-1.7,13.58-5.1,18.09c-3.4,4.51-7.99,6.76-13.77,6.76c-4.46,0-8.13-1.63-11.01-4.9
			v22.69h-15.14v-67.31h14.15l0.45,4.49c2.91-3.59,6.72-5.39,11.46-5.39c5.99,0,10.65,2.21,13.97,6.63s4.99,10.49,4.99,18.22V170.24
			z M630.05,169.29c0-8.63-2.52-12.94-7.55-12.94c-3.59,0-5.99,1.29-7.19,3.86v19.14c1.32,2.7,3.74,4.04,7.28,4.04
			c4.82,0,7.31-4.16,7.46-12.49V169.29z"/>
		<path class="text" d="M651.76,133.03c0-2.16,0.78-3.92,2.34-5.3s3.58-2.07,6.07-2.07c2.49,0,4.51,0.69,6.07,2.07
			s2.34,3.15,2.34,5.3c0,2.16-0.78,3.92-2.34,5.3s-3.58,2.07-6.07,2.07c-2.49,0-4.51-0.69-6.07-2.07S651.76,135.19,651.76,133.03z
			 M667.85,194.19h-15.19v-48.62h15.19V194.19z"/>
		<path class="text" d="M691.08,145.57l0.49,5.71c3.36-4.4,7.98-6.61,13.88-6.61c5.06,0,8.84,1.51,11.35,4.54
			c2.5,3.03,3.8,7.58,3.89,13.66v31.32H705.5V163.5c0-2.46-0.49-4.26-1.48-5.42c-0.99-1.15-2.79-1.73-5.39-1.73
			c-2.96,0-5.17,1.17-6.6,3.5v34.33h-15.14v-48.62H691.08z"/>
		<path class="text" d="M752.59,195.08c-7.46,0-13.5-2.22-18.11-6.67c-4.61-4.45-6.92-10.24-6.92-17.37v-1.26
			c0-4.97,0.92-9.36,2.76-13.17c1.84-3.8,4.53-6.75,8.07-8.83c3.53-2.08,7.73-3.12,12.58-3.12c6.83,0,12.22,2.12,16.18,6.36
			c3.95,4.24,5.93,10.15,5.93,17.73v5.89h-30.11c0.54,2.73,1.72,4.87,3.55,6.43c1.83,1.56,4.19,2.34,7.1,2.34
			c4.79,0,8.54-1.68,11.23-5.03l6.92,8.18c-1.89,2.61-4.56,4.68-8.02,6.22C760.3,194.31,756.58,195.08,752.59,195.08z
			 M750.88,156.35c-4.43,0-7.07,2.94-7.91,8.81h15.28v-1.17c0.06-2.43-0.55-4.31-1.84-5.64S753.28,156.35,750.88,156.35z"/>
		<path class="text" d="M804.63,180.53c0-1.29-0.67-2.32-2.02-3.1c-1.35-0.78-3.91-1.59-7.68-2.43c-3.77-0.84-6.89-1.94-9.35-3.3
			c-2.46-1.36-4.33-3.02-5.62-4.96s-1.93-4.18-1.93-6.7c0-4.46,1.84-8.14,5.53-11.03c3.68-2.89,8.51-4.34,14.47-4.34
			c6.41,0,11.56,1.45,15.46,4.36c3.89,2.91,5.84,6.73,5.84,11.46h-15.19c0-3.89-2.05-5.84-6.16-5.84c-1.59,0-2.92,0.44-4,1.33
			c-1.08,0.88-1.62,1.98-1.62,3.3c0,1.35,0.66,2.44,1.98,3.28c1.32,0.84,3.42,1.53,6.31,2.07c2.89,0.54,5.43,1.18,7.62,1.93
			c7.31,2.52,10.96,7.03,10.96,13.53c0,4.43-1.97,8.04-5.91,10.83s-9.04,4.18-15.3,4.18c-4.16,0-7.88-0.75-11.14-2.25
			c-3.26-1.5-5.81-3.54-7.64-6.11s-2.74-5.29-2.74-8.13h14.16c0.06,2.25,0.81,3.89,2.25,4.92c1.44,1.03,3.28,1.55,5.53,1.55
			c2.07,0,3.62-0.42,4.65-1.26C804.11,182.97,804.63,181.87,804.63,180.53z"/>
		<path class="text" d="M851.76,180.53c0-1.29-0.67-2.32-2.02-3.1c-1.35-0.78-3.91-1.59-7.68-2.43c-3.77-0.84-6.89-1.94-9.35-3.3
			c-2.46-1.36-4.33-3.02-5.62-4.96s-1.93-4.18-1.93-6.7c0-4.46,1.84-8.14,5.53-11.03c3.68-2.89,8.51-4.34,14.47-4.34
			c6.41,0,11.56,1.45,15.46,4.36c3.89,2.91,5.84,6.73,5.84,11.46h-15.19c0-3.89-2.05-5.84-6.16-5.84c-1.59,0-2.92,0.44-4,1.33
			c-1.08,0.88-1.62,1.98-1.62,3.3c0,1.35,0.66,2.44,1.98,3.28c1.32,0.84,3.42,1.53,6.31,2.07c2.89,0.54,5.43,1.18,7.62,1.93
			c7.31,2.52,10.96,7.03,10.96,13.53c0,4.43-1.97,8.04-5.91,10.83s-9.04,4.18-15.3,4.18c-4.16,0-7.88-0.75-11.14-2.25
			c-3.26-1.5-5.81-3.54-7.64-6.11s-2.74-5.29-2.74-8.13h14.16c0.06,2.25,0.81,3.89,2.25,4.92c1.44,1.03,3.28,1.55,5.53,1.55
			c2.07,0,3.62-0.42,4.65-1.26C851.25,182.97,851.76,181.87,851.76,180.53z"/>
	</g>
</g>
</svg>
